<svg xmlns="http://www.w3.org/2000/svg" viewBox="0 0 320 320">
  <title>아파하는 고블린 피격 반응</title>
  <desc>공격을 받아 눈을 찡그리고 입을 일그러뜨린 고블린</desc>
  <ellipse cx="160" cy="244" rx="82" ry="24" fill="#17220f" opacity=".35"/>
  <path d="M65 126 20 88l70 5zm190 0 45-38-70 5z" fill="#84bc4d" stroke="#3f2a1d" stroke-width="8" stroke-linejoin="round"/>
  <path d="M73 148c0-58 39-98 87-98s87 40 87 98c0 65-36 112-87 112s-87-47-87-112z" fill="#93d75e" stroke="#3f2a1d" stroke-width="9"/>
  <path d="m88 77 27 18m-15-45 18 30m114-2-30 20m8-49-18 32" stroke="#ffd166" stroke-width="9" stroke-linecap="round"/>
  <path d="M101 126c17-17 41-17 58 2m60-2c-17-17-41-17-58 2" fill="none" stroke="#3b2219" stroke-width="9" stroke-linecap="round"/>
  <path d="m112 160 33 22m0-22-33 22m63-22 33 22m0-22-33 22" fill="none" stroke="#11180d" stroke-width="8" stroke-linecap="round"/>
  <circle cx="103" cy="190" r="14" fill="#d85b3f" opacity=".38"/>
  <circle cx="217" cy="190" r="14" fill="#d85b3f" opacity=".38"/>
  <path d="M123 211c11-20 63-20 74 0 5 20-11 32-37 32s-42-12-37-32z" fill="#3b2219" stroke="#2a160c" stroke-width="7" stroke-linejoin="round"/>
  <path d="M139 215c11 8 31 8 42 0" fill="none" stroke="#fff8d5" stroke-width="7" stroke-linecap="round"/>
  <path d="M99 139c-10 8-18 8-28 0m178 0c-10 8-18 8-28 0" stroke="#f7f1df" stroke-width="5" stroke-linecap="round" opacity=".75"/>
  <path d="M83 219 38 248m199-29 45 29" stroke="#477d38" stroke-width="20" stroke-linecap="round"/>
</svg>
